<svg width="384" height="256" viewBox="0 0 384 256" fill="none" xmlns="http://www.w3.org/2000/svg">
<g clip-path="url(#clip0_75:1173)">
<rect width="384" height="256" fill="#B4B4B4"/>
<g clip-path="url(#clip1_75:1173)">
<rect width="512" height="256" transform="translate(-64)" fill="white"/>
<rect x="-64" y="103" width="512" height="51" fill="#C8102E"/>
<rect x="166" width="51" height="256" fill="#C8102E"/>
<path d="M234 176L394 256H234V176Z" fill="#012169"/>
<path d="M234 80L394 0H234V80Z" fill="#012169"/>
<path d="M149 176L-11 256H149V176Z" fill="#012169"/>
<path d="M149 80L-11 0H149V80Z" fill="#012169"/>
<path d="M448 26L448 86H328L448 26Z" fill="#012169"/>
<path d="M448 231L448 171H328L448 231Z" fill="#012169"/>
<path d="M-64 26L-64 86H56L-64 26Z" fill="#012169"/>
<path d="M-65 231L-65 171H55L-65 231Z" fill="#012169"/>
<path d="M100.5 171H134.5L-31 256H-65L100.5 171Z" fill="#C8102E"/>
<path d="M414 0H448L288 80H254L414 0Z" fill="#C8102E"/>
<path d="M448 256L273 170L307.453 170L448 239.875V256Z" fill="#C8102E"/>
</g>
<mask id="mask0_75:1173" style="mask-type:alpha" maskUnits="userSpaceOnUse" x="0" y="0" width="256" height="256">
<path d="M0 256V0H256L128 256H0Z" fill="black"/>
</mask>
<g mask="url(#mask0_75:1173)">
<rect width="486" height="256" fill="white"/>
<g clip-path="url(#clip2_75:1173)">
<rect width="486" height="19.6923" fill="#B22234"/>
<rect y="19.6923" width="486" height="19.6923" fill="white"/>
<rect y="39.3846" width="486" height="19.6923" fill="#B22234"/>
<rect y="59.0769" width="486" height="19.6923" fill="white"/>
<rect y="78.7692" width="486" height="19.6923" fill="#B22234"/>
<rect y="98.4615" width="486" height="19.6923" fill="white"/>
<rect y="118.154" width="486" height="19.6923" fill="#B22234"/>
<rect y="137.846" width="486" height="19.6923" fill="white"/>
<rect y="157.538" width="486" height="19.6923" fill="#B22234"/>
<rect y="177.231" width="486" height="19.6923" fill="white"/>
<rect y="196.923" width="486" height="19.6923" fill="#B22234"/>
<rect y="216.615" width="486" height="19.6923" fill="white"/>
<rect y="236.308" width="486" height="19.6923" fill="#B22234"/>
</g>
<rect width="194" height="138" fill="#3C3B6E"/>
<path d="M14.775 6.9L16.5431 12.3415H22.2646L17.6358 15.7045L19.4038 21.146L14.775 17.783L10.1462 21.146L11.9142 15.7045L7.28544 12.3415H13.007L14.775 6.9Z" fill="white"/>
<path d="M46.695 6.9L48.4631 12.3415H54.1846L49.5558 15.7045L51.3238 21.146L46.695 17.783L42.0662 21.146L43.8342 15.7045L39.2054 12.3415H44.927L46.695 6.9Z" fill="white"/>
<path d="M78.615 6.9L80.3831 12.3415H86.1046L81.4758 15.7045L83.2438 21.146L78.615 17.783L73.9862 21.146L75.7542 15.7045L71.1254 12.3415H76.847L78.615 6.9Z" fill="white"/>
<path d="M110.535 6.9L112.303 12.3415H118.025L113.396 15.7045L115.164 21.146L110.535 17.783L105.906 21.146L107.674 15.7045L103.045 12.3415H108.767L110.535 6.9Z" fill="white"/>
<path d="M142.455 6.9L144.223 12.3415H149.945L145.316 15.7045L147.084 21.146L142.455 17.783L137.826 21.146L139.594 15.7045L134.965 12.3415H140.687L142.455 6.9Z" fill="white"/>
<path d="M174.375 6.9L176.143 12.3415H181.865L177.236 15.7045L179.004 21.146L174.375 17.783L169.746 21.146L171.514 15.7045L166.885 12.3415H172.607L174.375 6.9Z" fill="white"/>
<path d="M30.945 20.7L32.7131 26.1415H38.4346L33.8058 29.5045L35.5738 34.946L30.945 31.583L26.3162 34.946L28.0842 29.5045L23.4554 26.1415H29.177L30.945 20.7Z" fill="white"/>
<path d="M62.865 20.7L64.6331 26.1415H70.3546L65.7258 29.5045L67.4938 34.946L62.865 31.583L58.2362 34.946L60.0042 29.5045L55.3754 26.1415H61.097L62.865 20.7Z" fill="white"/>
<path d="M94.785 20.7L96.5531 26.1415H102.275L97.6458 29.5045L99.4138 34.946L94.785 31.583L90.1562 34.946L91.9242 29.5045L87.2954 26.1415H93.017L94.785 20.7Z" fill="white"/>
<path d="M126.705 20.7L128.473 26.1415H134.195L129.566 29.5045L131.334 34.946L126.705 31.583L122.076 34.946L123.844 29.5045L119.215 26.1415H124.937L126.705 20.7Z" fill="white"/>
<path d="M158.625 20.7L160.393 26.1415H166.115L161.486 29.5045L163.254 34.946L158.625 31.583L153.996 34.946L155.764 29.5045L151.135 26.1415H156.857L158.625 20.7Z" fill="white"/>
<path d="M14.775 34.5L16.5431 39.9415H22.2646L17.6358 43.3045L19.4038 48.746L14.775 45.383L10.1462 48.746L11.9142 43.3045L7.28544 39.9415H13.007L14.775 34.5Z" fill="white"/>
<path d="M46.695 34.5L48.4631 39.9415H54.1846L49.5558 43.3045L51.3238 48.746L46.695 45.383L42.0662 48.746L43.8342 43.3045L39.2054 39.9415H44.927L46.695 34.5Z" fill="white"/>
<path d="M78.615 34.5L80.3831 39.9415H86.1046L81.4758 43.3045L83.2438 48.746L78.615 45.383L73.9862 48.746L75.7542 43.3045L71.1254 39.9415H76.847L78.615 34.5Z" fill="white"/>
<path d="M110.535 34.5L112.303 39.9415H118.025L113.396 43.3045L115.164 48.746L110.535 45.383L105.906 48.746L107.674 43.3045L103.045 39.9415H108.767L110.535 34.5Z" fill="white"/>
<path d="M142.455 34.5L144.223 39.9415H149.945L145.316 43.3045L147.084 48.746L142.455 45.383L137.826 48.746L139.594 43.3045L134.965 39.9415H140.687L142.455 34.5Z" fill="white"/>
<path d="M174.375 34.5L176.143 39.9415H181.865L177.236 43.3045L179.004 48.746L174.375 45.383L169.746 48.746L171.514 43.3045L166.885 39.9415H172.607L174.375 34.5Z" fill="white"/>
<path d="M30.945 48.3L32.7131 53.7415H38.4346L33.8058 57.1045L35.5738 62.546L30.945 59.183L26.3162 62.546L28.0842 57.1045L23.4554 53.7415H29.177L30.945 48.3Z" fill="white"/>
<path d="M62.865 48.3L64.6331 53.7415H70.3546L65.7258 57.1045L67.4938 62.546L62.865 59.183L58.2362 62.546L60.0042 57.1045L55.3754 53.7415H61.097L62.865 48.3Z" fill="white"/>
<path d="M94.785 48.3L96.5531 53.7415H102.275L97.6458 57.1045L99.4138 62.546L94.785 59.183L90.1562 62.546L91.9242 57.1045L87.2954 53.7415H93.017L94.785 48.3Z" fill="white"/>
<path d="M126.705 48.3L128.473 53.7415H134.195L129.566 57.1045L131.334 62.546L126.705 59.183L122.076 62.546L123.844 57.1045L119.215 53.7415H124.937L126.705 48.3Z" fill="white"/>
<path d="M158.625 48.3L160.393 53.7415H166.115L161.486 57.1045L163.254 62.546L158.625 59.183L153.996 62.546L155.764 57.1045L151.135 53.7415H156.857L158.625 48.3Z" fill="white"/>
<path d="M14.775 62.1L16.5431 67.5415H22.2646L17.6358 70.9045L19.4038 76.346L14.775 72.983L10.1462 76.346L11.9142 70.9045L7.28544 67.5415H13.007L14.775 62.1Z" fill="white"/>
<path d="M46.695 62.1L48.4631 67.5415H54.1846L49.5558 70.9045L51.3238 76.346L46.695 72.983L42.0662 76.346L43.8342 70.9045L39.2054 67.5415H44.927L46.695 62.1Z" fill="white"/>
<path d="M78.615 62.1L80.3831 67.5415H86.1046L81.4758 70.9045L83.2438 76.346L78.615 72.983L73.9862 76.346L75.7542 70.9045L71.1254 67.5415H76.847L78.615 62.1Z" fill="white"/>
<path d="M110.535 62.1L112.303 67.5415H118.025L113.396 70.9045L115.164 76.346L110.535 72.983L105.906 76.346L107.674 70.9045L103.045 67.5415H108.767L110.535 62.1Z" fill="white"/>
<path d="M142.455 62.1L144.223 67.5415H149.945L145.316 70.9045L147.084 76.346L142.455 72.983L137.826 76.346L139.594 70.9045L134.965 67.5415H140.687L142.455 62.1Z" fill="white"/>
<path d="M174.375 62.1L176.143 67.5415H181.865L177.236 70.9045L179.004 76.346L174.375 72.983L169.746 76.346L171.514 70.9045L166.885 67.5415H172.607L174.375 62.1Z" fill="white"/>
<path d="M30.945 75.9L32.7131 81.3415H38.4346L33.8058 84.7045L35.5738 90.146L30.945 86.783L26.3162 90.146L28.0842 84.7045L23.4554 81.3415H29.177L30.945 75.9Z" fill="white"/>
<path d="M62.865 75.9L64.6331 81.3415H70.3546L65.7258 84.7045L67.4938 90.146L62.865 86.783L58.2362 90.146L60.0042 84.7045L55.3754 81.3415H61.097L62.865 75.9Z" fill="white"/>
<path d="M94.785 75.9L96.5531 81.3415H102.275L97.6458 84.7045L99.4138 90.146L94.785 86.783L90.1562 90.146L91.9242 84.7045L87.2954 81.3415H93.017L94.785 75.9Z" fill="white"/>
<path d="M126.705 75.9L128.473 81.3415H134.195L129.566 84.7045L131.334 90.146L126.705 86.783L122.076 90.146L123.844 84.7045L119.215 81.3415H124.937L126.705 75.9Z" fill="white"/>
<path d="M158.625 75.9L160.393 81.3415H166.115L161.486 84.7045L163.254 90.146L158.625 86.783L153.996 90.146L155.764 84.7045L151.135 81.3415H156.857L158.625 75.9Z" fill="white"/>
<path d="M14.775 89.7L16.5431 95.1415H22.2646L17.6358 98.5045L19.4038 103.946L14.775 100.583L10.1462 103.946L11.9142 98.5045L7.28544 95.1415H13.007L14.775 89.7Z" fill="white"/>
<path d="M46.695 89.7L48.4631 95.1415H54.1846L49.5558 98.5045L51.3238 103.946L46.695 100.583L42.0662 103.946L43.8342 98.5045L39.2054 95.1415H44.927L46.695 89.7Z" fill="white"/>
<path d="M78.615 89.7L80.3831 95.1415H86.1046L81.4758 98.5045L83.2438 103.946L78.615 100.583L73.9862 103.946L75.7542 98.5045L71.1254 95.1415H76.847L78.615 89.7Z" fill="white"/>
<path d="M110.535 89.7L112.303 95.1415H118.025L113.396 98.5045L115.164 103.946L110.535 100.583L105.906 103.946L107.674 98.5045L103.045 95.1415H108.767L110.535 89.7Z" fill="white"/>
<path d="M142.455 89.7L144.223 95.1415H149.945L145.316 98.5045L147.084 103.946L142.455 100.583L137.826 103.946L139.594 98.5045L134.965 95.1415H140.687L142.455 89.7Z" fill="white"/>
<path d="M174.375 89.7L176.143 95.1415H181.865L177.236 98.5045L179.004 103.946L174.375 100.583L169.746 103.946L171.514 98.5045L166.885 95.1415H172.607L174.375 89.7Z" fill="white"/>
<path d="M30.945 103.5L32.7131 108.941H38.4346L33.8058 112.305L35.5738 117.746L30.945 114.383L26.3162 117.746L28.0842 112.305L23.4554 108.941H29.177L30.945 103.5Z" fill="white"/>
<path d="M62.865 103.5L64.6331 108.941H70.3546L65.7258 112.305L67.4938 117.746L62.865 114.383L58.2362 117.746L60.0042 112.305L55.3754 108.941H61.097L62.865 103.5Z" fill="white"/>
<path d="M94.785 103.5L96.5531 108.941H102.275L97.6458 112.305L99.4138 117.746L94.785 114.383L90.1562 117.746L91.9242 112.305L87.2954 108.941H93.017L94.785 103.5Z" fill="white"/>
<path d="M126.705 103.5L128.473 108.941H134.195L129.566 112.305L131.334 117.746L126.705 114.383L122.076 117.746L123.844 112.305L119.215 108.941H124.937L126.705 103.5Z" fill="white"/>
<path d="M158.625 103.5L160.393 108.941H166.115L161.486 112.305L163.254 117.746L158.625 114.383L153.996 117.746L155.764 112.305L151.135 108.941H156.857L158.625 103.5Z" fill="white"/>
<path d="M14.775 117.3L16.5431 122.741H22.2646L17.6358 126.105L19.4038 131.546L14.775 128.183L10.1462 131.546L11.9142 126.105L7.28544 122.741H13.007L14.775 117.3Z" fill="white"/>
<path d="M46.695 117.3L48.4631 122.741H54.1846L49.5558 126.105L51.3238 131.546L46.695 128.183L42.0662 131.546L43.8342 126.105L39.2054 122.741H44.927L46.695 117.3Z" fill="white"/>
<path d="M78.615 117.3L80.3831 122.741H86.1046L81.4758 126.105L83.2438 131.546L78.615 128.183L73.9862 131.546L75.7542 126.105L71.1254 122.741H76.847L78.615 117.3Z" fill="white"/>
<path d="M110.535 117.3L112.303 122.741H118.025L113.396 126.105L115.164 131.546L110.535 128.183L105.906 131.546L107.674 126.105L103.045 122.741H108.767L110.535 117.3Z" fill="white"/>
<path d="M142.455 117.3L144.223 122.741H149.945L145.316 126.105L147.084 131.546L142.455 128.183L137.826 131.546L139.594 126.105L134.965 122.741H140.687L142.455 117.3Z" fill="white"/>
<path d="M174.375 117.3L176.143 122.741H181.865L177.236 126.105L179.004 131.546L174.375 128.183L169.746 131.546L171.514 126.105L166.885 122.741H172.607L174.375 117.3Z" fill="white"/>
</g>
<path d="M256 0L128 256" stroke="black" stroke-width="10"/>
</g>
<defs>
<clipPath id="clip0_75:1173">
<rect width="384" height="256" fill="white"/>
</clipPath>
<clipPath id="clip1_75:1173">
<rect width="512" height="256" fill="white" transform="translate(-64)"/>
</clipPath>
<clipPath id="clip2_75:1173">
<rect width="486" height="256" fill="white"/>
</clipPath>
</defs>
</svg>
